%TF.GenerationSoftware,KiCad,Pcbnew,9.0.2*%
%TF.CreationDate,2025-10-03T07:29:53+01:00*%
%TF.ProjectId,MotorControl,4d6f746f-7243-46f6-9e74-726f6c2e6b69,rev?*%
%TF.SameCoordinates,Original*%
%TF.FileFunction,Drillmap*%
%TF.FilePolarity,Positive*%
%FSLAX45Y45*%
G04 Gerber Fmt 4.5, Leading zero omitted, Abs format (unit mm)*
G04 Created by KiCad (PCBNEW 9.0.2) date 2025-10-03 07:29:53*
%MOMM*%
%LPD*%
G01*
G04 APERTURE LIST*
%ADD10C,0.038100*%
%ADD11C,0.200000*%
G04 APERTURE END LIST*
D10*
X26719020Y-16289020D02*
X3754120Y-16289020D01*
X3754120Y-16289020D02*
G75*
G02*
X3254120Y-15789020I0J500000D01*
G01*
X26719020Y-1894840D02*
G75*
G02*
X27219020Y-2394840I0J-500000D01*
G01*
X3254120Y-15789020D02*
X3254120Y-2394840D01*
X27219020Y-15789020D02*
G75*
G02*
X26719020Y-16289020I-500000J0D01*
G01*
X3254120Y-2394840D02*
G75*
G02*
X3754120Y-1894840I500000J0D01*
G01*
X27219020Y-2394840D02*
X27219020Y-15789020D01*
X3754120Y-1894840D02*
X26719020Y-1894840D01*
D11*
X3512992Y-16602409D02*
X3512992Y-16402409D01*
X3512992Y-16402409D02*
X3560611Y-16402409D01*
X3560611Y-16402409D02*
X3589182Y-16411933D01*
X3589182Y-16411933D02*
X3608230Y-16430980D01*
X3608230Y-16430980D02*
X3617754Y-16450028D01*
X3617754Y-16450028D02*
X3627277Y-16488123D01*
X3627277Y-16488123D02*
X3627277Y-16516694D01*
X3627277Y-16516694D02*
X3617754Y-16554790D01*
X3617754Y-16554790D02*
X3608230Y-16573837D01*
X3608230Y-16573837D02*
X3589182Y-16592885D01*
X3589182Y-16592885D02*
X3560611Y-16602409D01*
X3560611Y-16602409D02*
X3512992Y-16602409D01*
X3712992Y-16602409D02*
X3712992Y-16469075D01*
X3712992Y-16507171D02*
X3722516Y-16488123D01*
X3722516Y-16488123D02*
X3732039Y-16478599D01*
X3732039Y-16478599D02*
X3751087Y-16469075D01*
X3751087Y-16469075D02*
X3770135Y-16469075D01*
X3836801Y-16602409D02*
X3836801Y-16469075D01*
X3836801Y-16402409D02*
X3827277Y-16411933D01*
X3827277Y-16411933D02*
X3836801Y-16421456D01*
X3836801Y-16421456D02*
X3846325Y-16411933D01*
X3846325Y-16411933D02*
X3836801Y-16402409D01*
X3836801Y-16402409D02*
X3836801Y-16421456D01*
X3960611Y-16602409D02*
X3941563Y-16592885D01*
X3941563Y-16592885D02*
X3932039Y-16573837D01*
X3932039Y-16573837D02*
X3932039Y-16402409D01*
X4065373Y-16602409D02*
X4046325Y-16592885D01*
X4046325Y-16592885D02*
X4036801Y-16573837D01*
X4036801Y-16573837D02*
X4036801Y-16402409D01*
X4293944Y-16602409D02*
X4293944Y-16402409D01*
X4293944Y-16402409D02*
X4360611Y-16545266D01*
X4360611Y-16545266D02*
X4427278Y-16402409D01*
X4427278Y-16402409D02*
X4427278Y-16602409D01*
X4608230Y-16602409D02*
X4608230Y-16497647D01*
X4608230Y-16497647D02*
X4598706Y-16478599D01*
X4598706Y-16478599D02*
X4579659Y-16469075D01*
X4579659Y-16469075D02*
X4541563Y-16469075D01*
X4541563Y-16469075D02*
X4522516Y-16478599D01*
X4608230Y-16592885D02*
X4589182Y-16602409D01*
X4589182Y-16602409D02*
X4541563Y-16602409D01*
X4541563Y-16602409D02*
X4522516Y-16592885D01*
X4522516Y-16592885D02*
X4512992Y-16573837D01*
X4512992Y-16573837D02*
X4512992Y-16554790D01*
X4512992Y-16554790D02*
X4522516Y-16535742D01*
X4522516Y-16535742D02*
X4541563Y-16526218D01*
X4541563Y-16526218D02*
X4589182Y-16526218D01*
X4589182Y-16526218D02*
X4608230Y-16516694D01*
X4703468Y-16469075D02*
X4703468Y-16669075D01*
X4703468Y-16478599D02*
X4722516Y-16469075D01*
X4722516Y-16469075D02*
X4760611Y-16469075D01*
X4760611Y-16469075D02*
X4779659Y-16478599D01*
X4779659Y-16478599D02*
X4789182Y-16488123D01*
X4789182Y-16488123D02*
X4798706Y-16507171D01*
X4798706Y-16507171D02*
X4798706Y-16564313D01*
X4798706Y-16564313D02*
X4789182Y-16583361D01*
X4789182Y-16583361D02*
X4779659Y-16592885D01*
X4779659Y-16592885D02*
X4760611Y-16602409D01*
X4760611Y-16602409D02*
X4722516Y-16602409D01*
X4722516Y-16602409D02*
X4703468Y-16592885D01*
X4884420Y-16583361D02*
X4893944Y-16592885D01*
X4893944Y-16592885D02*
X4884420Y-16602409D01*
X4884420Y-16602409D02*
X4874897Y-16592885D01*
X4874897Y-16592885D02*
X4884420Y-16583361D01*
X4884420Y-16583361D02*
X4884420Y-16602409D01*
X4884420Y-16478599D02*
X4893944Y-16488123D01*
X4893944Y-16488123D02*
X4884420Y-16497647D01*
X4884420Y-16497647D02*
X4874897Y-16488123D01*
X4874897Y-16488123D02*
X4884420Y-16478599D01*
X4884420Y-16478599D02*
X4884420Y-16497647D01*
M02*
