%TF.GenerationSoftware,KiCad,Pcbnew,9.0.2*%
%TF.CreationDate,2025-10-03T07:29:49+01:00*%
%TF.ProjectId,MotorControl,4d6f746f-7243-46f6-9e74-726f6c2e6b69,rev?*%
%TF.SameCoordinates,Original*%
%TF.FileFunction,Paste,Top*%
%TF.FilePolarity,Positive*%
%FSLAX46Y46*%
G04 Gerber Fmt 4.6, Leading zero omitted, Abs format (unit mm)*
G04 Created by KiCad (PCBNEW 9.0.2) date 2025-10-03 07:29:49*
%MOMM*%
%LPD*%
G01*
G04 APERTURE LIST*
G04 Aperture macros list*
%AMRoundRect*
0 Rectangle with rounded corners*
0 $1 Rounding radius*
0 $2 $3 $4 $5 $6 $7 $8 $9 X,Y pos of 4 corners*
0 Add a 4 corners polygon primitive as box body*
4,1,4,$2,$3,$4,$5,$6,$7,$8,$9,$2,$3,0*
0 Add four circle primitives for the rounded corners*
1,1,$1+$1,$2,$3*
1,1,$1+$1,$4,$5*
1,1,$1+$1,$6,$7*
1,1,$1+$1,$8,$9*
0 Add four rect primitives between the rounded corners*
20,1,$1+$1,$2,$3,$4,$5,0*
20,1,$1+$1,$4,$5,$6,$7,0*
20,1,$1+$1,$6,$7,$8,$9,0*
20,1,$1+$1,$8,$9,$2,$3,0*%
G04 Aperture macros list end*
%ADD10RoundRect,0.250000X2.375000X-2.025000X2.375000X2.025000X-2.375000X2.025000X-2.375000X-2.025000X0*%
%ADD11RoundRect,0.402091X0.482509X-1.897909X0.482509X1.897909X-0.482509X1.897909X-0.482509X-1.897909X0*%
%ADD12RoundRect,0.425182X0.510218X-1.874818X0.510218X1.874818X-0.510218X1.874818X-0.510218X-1.874818X0*%
%ADD13RoundRect,0.200000X0.200000X-2.100000X0.200000X2.100000X-0.200000X2.100000X-0.200000X-2.100000X0*%
%ADD14R,0.558800X1.981200*%
%ADD15RoundRect,0.250000X-2.025000X-2.375000X2.025000X-2.375000X2.025000X2.375000X-2.025000X2.375000X0*%
%ADD16RoundRect,0.402091X-1.897909X-0.482509X1.897909X-0.482509X1.897909X0.482509X-1.897909X0.482509X0*%
%ADD17RoundRect,0.425182X-1.874818X-0.510218X1.874818X-0.510218X1.874818X0.510218X-1.874818X0.510218X0*%
%ADD18R,1.981200X0.558800*%
%ADD19RoundRect,0.200000X-2.100000X-0.200000X2.100000X-0.200000X2.100000X0.200000X-2.100000X0.200000X0*%
G04 APERTURE END LIST*
D10*
%TO.C,Q23*%
X152757200Y-150800600D03*
X158307200Y-150800600D03*
X152757200Y-145950600D03*
X158307200Y-145950600D03*
D11*
X153326800Y-157525600D03*
D12*
X157686800Y-157525600D03*
%TD*%
D10*
%TO.C,Q24*%
X165107200Y-150800600D03*
X170657200Y-150800600D03*
X165107200Y-145950600D03*
X170657200Y-145950600D03*
D13*
X164072200Y-157525600D03*
X165342200Y-157525600D03*
X166612200Y-157525600D03*
X167882200Y-157525600D03*
X169152200Y-157525600D03*
X170422200Y-157525600D03*
X171692200Y-157525600D03*
%TD*%
D10*
%TO.C,Q51*%
X228688800Y-151103200D03*
X234238800Y-151103200D03*
X228688800Y-146253200D03*
X234238800Y-146253200D03*
D11*
X229258400Y-157828200D03*
D12*
X233618400Y-157828200D03*
%TD*%
D10*
%TO.C,Q34*%
X193066800Y-80364200D03*
X198616800Y-80364200D03*
X193066800Y-75514200D03*
X198616800Y-75514200D03*
D11*
X193636400Y-87089200D03*
D12*
X197996400Y-87089200D03*
%TD*%
D10*
%TO.C,Q49*%
X203988800Y-151103200D03*
X209538800Y-151103200D03*
X203988800Y-146253200D03*
X209538800Y-146253200D03*
D13*
X202953800Y-157828200D03*
X204223800Y-157828200D03*
X205493800Y-157828200D03*
X206763800Y-157828200D03*
X208033800Y-157828200D03*
X209303800Y-157828200D03*
X210573800Y-157828200D03*
%TD*%
D10*
%TO.C,Q27*%
X177457200Y-150800600D03*
X183007200Y-150800600D03*
X177457200Y-145950600D03*
X183007200Y-145950600D03*
D11*
X178026800Y-157525600D03*
D12*
X182386800Y-157525600D03*
%TD*%
D10*
%TO.C,Q37*%
X230116800Y-80364200D03*
X235666800Y-80364200D03*
X230116800Y-75514200D03*
X235666800Y-75514200D03*
D11*
X230686400Y-87089200D03*
D12*
X235046400Y-87089200D03*
%TD*%
D10*
%TO.C,Q85*%
X88556000Y-141017200D03*
X94106000Y-141017200D03*
X88556000Y-136167200D03*
X94106000Y-136167200D03*
D13*
X87521000Y-147742200D03*
X88791000Y-147742200D03*
X90061000Y-147742200D03*
X91331000Y-147742200D03*
X92601000Y-147742200D03*
X93871000Y-147742200D03*
X95141000Y-147742200D03*
%TD*%
D14*
%TO.C,U18*%
X170053000Y-84023200D03*
X171323000Y-84023200D03*
X172593000Y-84023200D03*
X173863000Y-84023200D03*
X175133000Y-84023200D03*
X176403000Y-84023200D03*
X177673000Y-84023200D03*
X178943000Y-84023200D03*
X178943000Y-79095600D03*
X177673000Y-79095600D03*
X176403000Y-79095600D03*
X175133000Y-79095600D03*
X173863000Y-79095600D03*
X172593000Y-79095600D03*
X171323000Y-79095600D03*
X170053000Y-79095600D03*
%TD*%
D10*
%TO.C,Q8*%
X63856000Y-141017200D03*
X69406000Y-141017200D03*
X63856000Y-136167200D03*
X69406000Y-136167200D03*
D11*
X64425600Y-147742200D03*
D12*
X68785600Y-147742200D03*
%TD*%
D15*
%TO.C,Q69*%
X55752200Y-86833200D03*
X55752200Y-92383200D03*
X60602200Y-86833200D03*
X60602200Y-92383200D03*
D16*
X49027200Y-87402800D03*
D17*
X49027200Y-91762800D03*
%TD*%
D18*
%TO.C,U21*%
X154609800Y-59740800D03*
X154609800Y-61010800D03*
X154609800Y-62280800D03*
X154609800Y-63550800D03*
X154609800Y-64820800D03*
X154609800Y-66090800D03*
X154609800Y-67360800D03*
X154609800Y-68630800D03*
X159537400Y-68630800D03*
X159537400Y-67360800D03*
X159537400Y-66090800D03*
X159537400Y-64820800D03*
X159537400Y-63550800D03*
X159537400Y-62280800D03*
X159537400Y-61010800D03*
X159537400Y-59740800D03*
%TD*%
D10*
%TO.C,Q55*%
X253388800Y-151103200D03*
X258938800Y-151103200D03*
X253388800Y-146253200D03*
X258938800Y-146253200D03*
D11*
X253958400Y-157828200D03*
D12*
X258318400Y-157828200D03*
%TD*%
D10*
%TO.C,Q21*%
X128057200Y-150800600D03*
X133607200Y-150800600D03*
X128057200Y-145950600D03*
X133607200Y-145950600D03*
D13*
X127022200Y-157525600D03*
X128292200Y-157525600D03*
X129562200Y-157525600D03*
X130832200Y-157525600D03*
X132102200Y-157525600D03*
X133372200Y-157525600D03*
X134642200Y-157525600D03*
%TD*%
D10*
%TO.C,Q20*%
X115707200Y-150800600D03*
X121257200Y-150800600D03*
X115707200Y-145950600D03*
X121257200Y-145950600D03*
D11*
X116276800Y-157525600D03*
D12*
X120636800Y-157525600D03*
%TD*%
D10*
%TO.C,Q52*%
X241038800Y-151103200D03*
X246588800Y-151103200D03*
X241038800Y-146253200D03*
X246588800Y-146253200D03*
D13*
X240003800Y-157828200D03*
X241273800Y-157828200D03*
X242543800Y-157828200D03*
X243813800Y-157828200D03*
X245083800Y-157828200D03*
X246353800Y-157828200D03*
X247623800Y-157828200D03*
%TD*%
D15*
%TO.C,Q79*%
X112252200Y-62133200D03*
X112252200Y-67683200D03*
X117102200Y-62133200D03*
X117102200Y-67683200D03*
D16*
X105527200Y-62702800D03*
D17*
X105527200Y-67062800D03*
%TD*%
D10*
%TO.C,Q11*%
X76206000Y-141017200D03*
X81756000Y-141017200D03*
X76206000Y-136167200D03*
X81756000Y-136167200D03*
D11*
X76775600Y-147742200D03*
D12*
X81135600Y-147742200D03*
%TD*%
D15*
%TO.C,Q63*%
X55752200Y-37433200D03*
X55752200Y-42983200D03*
X60602200Y-37433200D03*
X60602200Y-42983200D03*
D19*
X49027200Y-36398200D03*
X49027200Y-37668200D03*
X49027200Y-38938200D03*
X49027200Y-40208200D03*
X49027200Y-41478200D03*
X49027200Y-42748200D03*
X49027200Y-44018200D03*
%TD*%
D10*
%TO.C,Q7*%
X51506000Y-141017200D03*
X57056000Y-141017200D03*
X51506000Y-136167200D03*
X57056000Y-136167200D03*
D11*
X52075600Y-147742200D03*
D12*
X56435600Y-147742200D03*
%TD*%
D18*
%TO.C,U13*%
X86463800Y-97495000D03*
X86463800Y-96225000D03*
X86463800Y-94955000D03*
X86463800Y-93685000D03*
X86463800Y-92415000D03*
X86463800Y-91145000D03*
X86463800Y-89875000D03*
X86463800Y-88605000D03*
X81536200Y-88605000D03*
X81536200Y-89875000D03*
X81536200Y-91145000D03*
X81536200Y-92415000D03*
X81536200Y-93685000D03*
X81536200Y-94955000D03*
X81536200Y-96225000D03*
X81536200Y-97495000D03*
%TD*%
%TO.C,U20*%
X36677600Y-40894000D03*
X36677600Y-42164000D03*
X36677600Y-43434000D03*
X36677600Y-44704000D03*
X36677600Y-45974000D03*
X36677600Y-47244000D03*
X36677600Y-48514000D03*
X36677600Y-49784000D03*
X41605200Y-49784000D03*
X41605200Y-48514000D03*
X41605200Y-47244000D03*
X41605200Y-45974000D03*
X41605200Y-44704000D03*
X41605200Y-43434000D03*
X41605200Y-42164000D03*
X41605200Y-40894000D03*
%TD*%
D15*
%TO.C,Q65*%
X55752200Y-62133200D03*
X55752200Y-67683200D03*
X60602200Y-62133200D03*
X60602200Y-67683200D03*
D16*
X49027200Y-62702800D03*
D17*
X49027200Y-67062800D03*
%TD*%
D15*
%TO.C,Q80*%
X112252200Y-74483200D03*
X112252200Y-80033200D03*
X117102200Y-74483200D03*
X117102200Y-80033200D03*
D19*
X105527200Y-73448200D03*
X105527200Y-74718200D03*
X105527200Y-75988200D03*
X105527200Y-77258200D03*
X105527200Y-78528200D03*
X105527200Y-79798200D03*
X105527200Y-81068200D03*
%TD*%
D10*
%TO.C,Q41*%
X254816800Y-80364200D03*
X260366800Y-80364200D03*
X254816800Y-75514200D03*
X260366800Y-75514200D03*
D11*
X255386400Y-87089200D03*
D12*
X259746400Y-87089200D03*
%TD*%
D10*
%TO.C,Q38*%
X242466800Y-80364200D03*
X248016800Y-80364200D03*
X242466800Y-75514200D03*
X248016800Y-75514200D03*
D13*
X241431800Y-87089200D03*
X242701800Y-87089200D03*
X243971800Y-87089200D03*
X245241800Y-87089200D03*
X246511800Y-87089200D03*
X247781800Y-87089200D03*
X249051800Y-87089200D03*
%TD*%
D10*
%TO.C,Q36*%
X217766800Y-80364200D03*
X223316800Y-80364200D03*
X217766800Y-75514200D03*
X223316800Y-75514200D03*
D11*
X218336400Y-87089200D03*
D12*
X222696400Y-87089200D03*
%TD*%
D14*
%TO.C,U15*%
X205181200Y-102311200D03*
X206451200Y-102311200D03*
X207721200Y-102311200D03*
X208991200Y-102311200D03*
X210261200Y-102311200D03*
X211531200Y-102311200D03*
X212801200Y-102311200D03*
X214071200Y-102311200D03*
X214071200Y-97383600D03*
X212801200Y-97383600D03*
X211531200Y-97383600D03*
X210261200Y-97383600D03*
X208991200Y-97383600D03*
X207721200Y-97383600D03*
X206451200Y-97383600D03*
X205181200Y-97383600D03*
%TD*%
%TO.C,U19*%
X204978000Y-30302200D03*
X206248000Y-30302200D03*
X207518000Y-30302200D03*
X208788000Y-30302200D03*
X210058000Y-30302200D03*
X211328000Y-30302200D03*
X212598000Y-30302200D03*
X213868000Y-30302200D03*
X213868000Y-25374600D03*
X212598000Y-25374600D03*
X211328000Y-25374600D03*
X210058000Y-25374600D03*
X208788000Y-25374600D03*
X207518000Y-25374600D03*
X206248000Y-25374600D03*
X204978000Y-25374600D03*
%TD*%
D10*
%TO.C,Q22*%
X140407200Y-150800600D03*
X145957200Y-150800600D03*
X140407200Y-145950600D03*
X145957200Y-145950600D03*
D11*
X140976800Y-157525600D03*
D12*
X145336800Y-157525600D03*
%TD*%
D10*
%TO.C,Q35*%
X205416800Y-80364200D03*
X210966800Y-80364200D03*
X205416800Y-75514200D03*
X210966800Y-75514200D03*
D13*
X204381800Y-87089200D03*
X205651800Y-87089200D03*
X206921800Y-87089200D03*
X208191800Y-87089200D03*
X209461800Y-87089200D03*
X210731800Y-87089200D03*
X212001800Y-87089200D03*
%TD*%
D10*
%TO.C,Q50*%
X216338800Y-151103200D03*
X221888800Y-151103200D03*
X216338800Y-146253200D03*
X221888800Y-146253200D03*
D11*
X216908400Y-157828200D03*
D12*
X221268400Y-157828200D03*
%TD*%
D10*
%TO.C,Q48*%
X191638800Y-151103200D03*
X197188800Y-151103200D03*
X191638800Y-146253200D03*
X197188800Y-146253200D03*
D11*
X192208400Y-157828200D03*
D12*
X196568400Y-157828200D03*
%TD*%
D15*
%TO.C,Q76*%
X112252200Y-25083200D03*
X112252200Y-30633200D03*
X117102200Y-25083200D03*
X117102200Y-30633200D03*
D16*
X105527200Y-25652800D03*
D17*
X105527200Y-30012800D03*
%TD*%
D14*
%TO.C,U16*%
X162306000Y-113538000D03*
X163576000Y-113538000D03*
X164846000Y-113538000D03*
X166116000Y-113538000D03*
X167386000Y-113538000D03*
X168656000Y-113538000D03*
X169926000Y-113538000D03*
X171196000Y-113538000D03*
X171196000Y-108610400D03*
X169926000Y-108610400D03*
X168656000Y-108610400D03*
X167386000Y-108610400D03*
X166116000Y-108610400D03*
X164846000Y-108610400D03*
X163576000Y-108610400D03*
X162306000Y-108610400D03*
%TD*%
D10*
%TO.C,Q6*%
X39156000Y-141017200D03*
X44706000Y-141017200D03*
X39156000Y-136167200D03*
X44706000Y-136167200D03*
D11*
X39725600Y-147742200D03*
D12*
X44085600Y-147742200D03*
%TD*%
D10*
%TO.C,Q86*%
X100906000Y-141017200D03*
X106456000Y-141017200D03*
X100906000Y-136167200D03*
X106456000Y-136167200D03*
D13*
X99871000Y-147742200D03*
X101141000Y-147742200D03*
X102411000Y-147742200D03*
X103681000Y-147742200D03*
X104951000Y-147742200D03*
X106221000Y-147742200D03*
X107491000Y-147742200D03*
%TD*%
D15*
%TO.C,Q64*%
X55752200Y-49783200D03*
X55752200Y-55333200D03*
X60602200Y-49783200D03*
X60602200Y-55333200D03*
D16*
X49027200Y-50352800D03*
D17*
X49027200Y-54712800D03*
%TD*%
D15*
%TO.C,Q77*%
X112252200Y-37433200D03*
X112252200Y-42983200D03*
X117102200Y-37433200D03*
X117102200Y-42983200D03*
D19*
X105527200Y-36398200D03*
X105527200Y-37668200D03*
X105527200Y-38938200D03*
X105527200Y-40208200D03*
X105527200Y-41478200D03*
X105527200Y-42748200D03*
X105527200Y-44018200D03*
%TD*%
D14*
%TO.C,U23*%
X123901200Y-102895400D03*
X125171200Y-102895400D03*
X126441200Y-102895400D03*
X127711200Y-102895400D03*
X128981200Y-102895400D03*
X130251200Y-102895400D03*
X131521200Y-102895400D03*
X132791200Y-102895400D03*
X132791200Y-97967800D03*
X131521200Y-97967800D03*
X130251200Y-97967800D03*
X128981200Y-97967800D03*
X127711200Y-97967800D03*
X126441200Y-97967800D03*
X125171200Y-97967800D03*
X123901200Y-97967800D03*
%TD*%
D15*
%TO.C,Q78*%
X112252200Y-49783200D03*
X112252200Y-55333200D03*
X117102200Y-49783200D03*
X117102200Y-55333200D03*
D16*
X105527200Y-50352800D03*
D17*
X105527200Y-54712800D03*
%TD*%
D15*
%TO.C,Q62*%
X55752200Y-25083200D03*
X55752200Y-30633200D03*
X60602200Y-25083200D03*
X60602200Y-30633200D03*
D16*
X49027200Y-25652800D03*
D17*
X49027200Y-30012800D03*
%TD*%
D15*
%TO.C,Q66*%
X55752200Y-74483200D03*
X55752200Y-80033200D03*
X60602200Y-74483200D03*
X60602200Y-80033200D03*
D19*
X49027200Y-73448200D03*
X49027200Y-74718200D03*
X49027200Y-75988200D03*
X49027200Y-77258200D03*
X49027200Y-78528200D03*
X49027200Y-79798200D03*
X49027200Y-81068200D03*
%TD*%
D18*
%TO.C,U22*%
X95300800Y-62966600D03*
X95300800Y-64236600D03*
X95300800Y-65506600D03*
X95300800Y-66776600D03*
X95300800Y-68046600D03*
X95300800Y-69316600D03*
X95300800Y-70586600D03*
X95300800Y-71856600D03*
X100228400Y-71856600D03*
X100228400Y-70586600D03*
X100228400Y-69316600D03*
X100228400Y-68046600D03*
X100228400Y-66776600D03*
X100228400Y-65506600D03*
X100228400Y-64236600D03*
X100228400Y-62966600D03*
%TD*%
D15*
%TO.C,Q83*%
X112252200Y-86833200D03*
X112252200Y-92383200D03*
X117102200Y-86833200D03*
X117102200Y-92383200D03*
D16*
X105527200Y-87402800D03*
D17*
X105527200Y-91762800D03*
%TD*%
M02*
