M48
; DRILL file {KiCad 9.0.2} date 2025-10-03T07:29:53+0100
; FORMAT={-:-/ absolute / metric / decimal}
; #@! TF.CreationDate,2025-10-03T07:29:53+01:00
; #@! TF.GenerationSoftware,Kicad,Pcbnew,9.0.2
; #@! TF.FileFunction,Plated,1,6,PTH
FMAT,2
METRIC
; #@! TA.AperFunction,Plated,PTH,ViaDrill
T1C0.300
; #@! TA.AperFunction,Plated,PTH,ViaDrill
T2C0.400
; #@! TA.AperFunction,Plated,PTH,ComponentDrill
T3C0.500
; #@! TA.AperFunction,Plated,PTH,ComponentDrill
T4C0.750
; #@! TA.AperFunction,Plated,PTH,ComponentDrill
T5C0.800
; #@! TA.AperFunction,Plated,PTH,ComponentDrill
T6C1.000
; #@! TA.AperFunction,Plated,PTH,ComponentDrill
T7C1.100
; #@! TA.AperFunction,Plated,PTH,ComponentDrill
T8C1.520
; #@! TA.AperFunction,Plated,PTH,ComponentDrill
T9C2.700
%
G90
G05
T1
X34.75Y-58.6
X36.25Y-56.85
X37.1Y-39.65
X38.15Y-45.0
X38.4Y-58.75
X39.05Y-48.4
X40.25Y-43.65
X41.605Y-47.244
X41.931Y-138.592
X42.15Y-65.25
X43.15Y-51.45
X43.5Y-41.75
X44.9Y-38.2
X45.2Y-61.9
X45.5Y-73.45
X46.1Y-52.6
X46.139Y-35.689
X48.1Y-144.15
X48.5Y-154.0
X49.027Y-50.353
X49.027Y-54.713
X52.076Y-147.742
X54.3Y-119.05
X54.5Y-83.35
X57.1Y-83.4
X57.55Y-126.85
X58.177Y-27.858
X58.177Y-40.208
X58.177Y-52.558
X59.1Y-63.75
X59.6Y-83.45
X61.95Y-83.4
X64.426Y-147.742
X66.05Y-106.75
X67.15Y-104.55
X67.4Y-51.15
X69.575Y-119.825
X70.15Y-57.2
X71.9Y-55.2
X74.8Y-100.65
X76.3Y-54.75
X76.6Y-98.3
X76.776Y-147.742
X78.65Y-60.15
X79.05Y-96.4
X80.2Y-103.2
X80.55Y-87.25
X83.275Y-91.325
X83.95Y-93.799
X84.55Y-95.15
X84.6Y-99.7
X87.521Y-147.742
X87.95Y-49.85
X88.3Y-51.45
X89.85Y-63.0
X91.331Y-138.592
X92.5Y-63.55
X93.45Y-122.95
X93.5Y-61.65
X95.301Y-68.8
X95.301Y-71.5
X96.2Y-78.2
X97.85Y-66.05
X99.871Y-147.742
X100.305Y-73.762
X102.006Y-60.5
X102.3Y-68.85
X103.681Y-138.592
X104.5Y-34.15
X105.527Y-54.713
X105.527Y-62.703
X105.65Y-48.65
X105.8Y-71.9
X106.05Y-32.9
X107.625Y-34.075
X108.85Y-40.2
X108.9Y-36.05
X110.7Y-34.0
X111.1Y-158.7
X111.95Y-83.45
X112.1Y-34.0
X113.55Y-34.0
X113.65Y-161.3
X113.832Y-75.368
X114.65Y-114.75
X114.677Y-89.608
X114.709Y-77.29
X114.8Y-83.45
X114.9Y-34.0
X116.277Y-157.526
X118.0Y-83.4
X119.15Y-127.7
X120.15Y-71.05
X121.7Y-101.0
X122.65Y-103.2
X123.05Y-157.4
X123.45Y-159.1
X124.6Y-144.65
X124.65Y-147.15
X124.65Y-156.05
X124.7Y-149.5
X124.7Y-151.8
X124.7Y-157.95
X125.1Y-105.5
X127.1Y-102.895
X127.2Y-134.9
X128.1Y-136.6
X128.15Y-120.7
X128.9Y-106.1
X129.05Y-40.75
X129.1Y-161.6
X129.15Y-134.85
X132.75Y-100.5
X133.3Y-161.3
X134.25Y-98.55
X137.525Y-99.475
X137.7Y-51.35
X138.8Y-114.7
X139.05Y-128.8
X140.977Y-157.526
X141.9Y-116.25
X143.8Y-135.3
X144.55Y-161.05
X147.85Y-135.4
X150.35Y-119.6
X151.6Y-117.8
X152.7Y-123.25
X152.85Y-104.45
X153.15Y-116.55
X153.327Y-157.526
X155.45Y-92.55
X157.3Y-64.0
X157.65Y-62.6
X157.81Y-68.631
X158.1Y-110.2
X159.15Y-104.65
X159.6Y-76.75
X160.15Y-71.85
X160.75Y-55.65
X161.15Y-66.1
X161.25Y-64.5
X161.5Y-44.2
X162.5Y-106.2
X163.95Y-70.05
X164.072Y-157.526
X164.3Y-76.4
X165.837Y-60.427
X166.091Y-66.853
X166.612Y-157.526
X167.882Y-157.526
X169.152Y-157.526
X169.3Y-111.35
X170.422Y-157.526
X171.221Y-86.233
X171.4Y-88.6
X171.6Y-81.55
X171.692Y-157.526
X171.9Y-71.85
X173.7Y-81.4
X174.05Y-146.8
X174.05Y-151.8
X174.1Y-144.75
X174.15Y-149.05
X177.673Y-79.096
X179.1Y-71.65
X179.9Y-81.6
X179.9Y-118.6
X183.515Y-74.651
X183.515Y-80.4
X185.45Y-81.8
X186.868Y-69.012
X187.198Y-105.181
X187.846Y-77.204
X194.414Y-148.678
X195.25Y-32.969
X195.6Y-77.939
X200.5Y-145.4
X200.533Y-103.403
X200.55Y-147.2
X200.6Y-149.2
X200.6Y-151.55
X201.95Y-77.95
X202.0Y-75.75
X202.05Y-74.15
X202.05Y-81.7
X202.15Y-79.9
X202.9Y-161.15
X203.022Y-32.334
X203.479Y-99.365
X205.054Y-104.242
X205.257Y-66.345
X205.486Y-83.744
X205.95Y-42.65
X206.273Y-95.529
X206.764Y-148.85
X208.192Y-77.939
X208.407Y-31.775
X208.864Y-23.47
X209.067Y-104.216
X210.033Y-26.619
X211.252Y-31.623
X211.582Y-23.368
X212.573Y-26.797
X212.928Y-99.72
X213.487Y-66.802
X214.071Y-97.384
X214.274Y-84.531
X214.859Y-22.428
X217.45Y-127.9
X220.574Y-92.075
X225.095Y-118.364
X229.258Y-157.828
X229.743Y-131.47
X230.353Y-58.699
X233.502Y-58.826
X239.979Y-87.376
X240.65Y-161.5
X242.951Y-51.359
X245.242Y-78.0
X246.482Y-68.605
X249.479Y-60.731
X249.95Y-145.0
X249.95Y-152.2
X250.0Y-147.45
X250.05Y-149.8
X251.4Y-79.1
X251.4Y-81.7
X251.45Y-74.0
X251.45Y-76.45
X257.592Y-77.939
T2
X58.177Y-89.608
X114.677Y-27.858
X114.677Y-40.208
X237.0Y-100.9
X239.45Y-96.2
X240.95Y-30.35
X243.3Y-23.5
X243.85Y-97.65
X245.45Y-101.2
X247.8Y-37.35
X248.2Y-29.55
X249.35Y-96.65
X253.75Y-25.3
X254.6Y-100.0
X256.05Y-35.05
X258.0Y-95.25
X260.1Y-41.05
X266.7Y-92.2
X266.75Y-34.8
X267.6Y-43.4
X267.7Y-79.3
T3
X36.34Y-155.042
X36.933Y-153.61
X36.933Y-156.473
X37.381Y-26.645
X37.974Y-25.213
X37.974Y-28.076
X38.365Y-153.017
X38.365Y-157.067
X39.406Y-24.62
X39.406Y-28.67
X39.797Y-153.61
X39.797Y-156.473
X40.39Y-155.042
X40.838Y-25.213
X40.838Y-28.076
X41.431Y-26.645
X93.508Y-97.333
X94.101Y-95.901
X94.101Y-98.765
X95.533Y-95.308
X95.533Y-99.358
X96.965Y-95.901
X96.965Y-98.765
X97.558Y-97.333
X192.234Y-26.772
X192.827Y-25.34
X192.827Y-28.203
X194.259Y-24.747
X194.259Y-28.797
X194.321Y-100.482
X194.914Y-99.051
X194.914Y-101.914
X195.69Y-25.34
X195.69Y-28.203
X196.284Y-26.772
X196.346Y-98.457
X196.346Y-102.507
X197.778Y-99.051
X197.778Y-101.914
X198.371Y-100.482
X224.242Y-26.772
X224.242Y-100.152
X224.835Y-25.34
X224.835Y-28.203
X224.835Y-98.72
X224.835Y-101.584
X226.267Y-24.747
X226.267Y-28.797
X226.267Y-98.127
X226.267Y-102.177
X227.699Y-25.34
X227.699Y-28.203
X227.699Y-98.72
X227.699Y-101.584
X228.292Y-26.772
X228.292Y-100.152
X262.18Y-26.772
X262.18Y-100.152
X262.773Y-25.34
X262.773Y-28.203
X262.773Y-98.72
X262.773Y-101.584
X264.205Y-24.747
X264.205Y-28.797
X264.205Y-98.127
X264.205Y-102.177
X264.552Y-155.289
X265.145Y-153.857
X265.145Y-156.72
X265.637Y-25.34
X265.637Y-28.203
X265.637Y-98.72
X265.637Y-101.584
X266.23Y-26.772
X266.23Y-100.152
X266.577Y-153.264
X266.577Y-157.314
X268.009Y-153.857
X268.009Y-156.72
X268.602Y-155.289
T4
X39.011Y-97.743
X39.011Y-99.572
X39.011Y-101.35
X44.801Y-97.743
X44.801Y-99.572
X44.801Y-101.35
X50.591Y-97.743
X50.591Y-99.572
X50.591Y-101.35
X56.381Y-97.743
X56.381Y-99.572
X56.381Y-101.35
X62.171Y-97.743
X62.171Y-99.572
X62.171Y-101.35
X67.961Y-97.743
X67.961Y-99.572
X67.961Y-101.35
X95.419Y-24.938
X95.419Y-30.728
X95.419Y-36.518
X95.419Y-42.308
X95.419Y-48.098
X95.419Y-53.888
X97.197Y-24.938
X97.197Y-30.728
X97.197Y-36.518
X97.197Y-42.308
X97.197Y-48.098
X97.197Y-53.888
X99.026Y-24.938
X99.026Y-30.728
X99.026Y-36.518
X99.026Y-42.308
X99.026Y-48.098
X99.026Y-53.888
X115.562Y-107.527
X115.562Y-109.356
X115.562Y-111.134
X121.352Y-107.527
X121.352Y-109.356
X121.352Y-111.134
X127.142Y-107.527
X127.142Y-109.356
X127.142Y-111.134
X132.932Y-107.527
X132.932Y-109.356
X132.932Y-111.134
X138.722Y-107.527
X138.722Y-109.356
X138.722Y-111.134
X144.512Y-107.527
X144.512Y-109.356
X144.512Y-111.134
X154.093Y-25.081
X154.093Y-30.871
X154.093Y-36.661
X154.093Y-42.451
X154.093Y-48.241
X154.093Y-54.031
X155.871Y-25.081
X155.871Y-30.871
X155.871Y-36.661
X155.871Y-42.451
X155.871Y-48.241
X155.871Y-54.031
X157.7Y-25.081
X157.7Y-30.871
X157.7Y-36.661
X157.7Y-42.451
X157.7Y-48.241
X157.7Y-54.031
X191.494Y-107.829
X191.494Y-109.658
X191.494Y-111.436
X192.922Y-37.09
X192.922Y-38.919
X192.922Y-40.697
X197.284Y-107.829
X197.284Y-109.658
X197.284Y-111.436
X198.712Y-37.09
X198.712Y-38.919
X198.712Y-40.697
X203.074Y-107.829
X203.074Y-109.658
X203.074Y-111.436
X204.502Y-37.09
X204.502Y-38.919
X204.502Y-40.697
X208.864Y-107.829
X208.864Y-109.658
X208.864Y-111.436
X210.292Y-37.09
X210.292Y-38.919
X210.292Y-40.697
X214.654Y-107.829
X214.654Y-109.658
X214.654Y-111.436
X216.082Y-37.09
X216.082Y-38.919
X216.082Y-40.697
X220.444Y-107.829
X220.444Y-109.658
X220.444Y-111.436
X221.872Y-37.09
X221.872Y-38.919
X221.872Y-40.697
T5
X37.81Y-121.382
X37.81Y-131.542
X41.969Y-121.382
X41.969Y-131.542
X46.128Y-121.382
X46.128Y-131.542
X50.286Y-121.382
X50.286Y-131.542
X54.445Y-121.382
X54.445Y-131.542
X58.604Y-121.382
X58.604Y-131.542
X62.763Y-121.382
X62.763Y-131.542
X65.227Y-23.737
X65.227Y-27.896
X65.227Y-32.055
X65.227Y-36.214
X65.227Y-40.372
X65.227Y-44.531
X65.227Y-48.69
X65.227Y-52.849
X65.227Y-57.008
X65.227Y-61.166
X65.227Y-65.325
X65.227Y-69.484
X65.227Y-73.643
X65.227Y-77.802
X65.237Y-81.948
X65.237Y-84.488
X65.237Y-88.588
X65.237Y-91.128
X66.922Y-121.382
X66.922Y-131.542
X71.08Y-121.382
X71.08Y-131.542
X72.857Y-81.948
X72.857Y-84.488
X72.857Y-88.588
X72.857Y-91.128
X75.239Y-121.382
X75.239Y-131.542
X75.387Y-23.737
X75.387Y-27.896
X75.387Y-32.055
X75.387Y-36.214
X75.387Y-40.372
X75.387Y-44.531
X75.387Y-48.69
X75.387Y-52.849
X75.387Y-57.008
X75.387Y-61.166
X75.387Y-65.325
X75.387Y-69.484
X75.387Y-73.643
X75.387Y-77.802
X79.398Y-121.382
X79.398Y-131.542
X83.557Y-121.382
X83.557Y-131.542
X87.716Y-121.382
X87.716Y-131.542
X91.874Y-121.382
X91.874Y-131.542
X96.021Y-123.912
X96.021Y-131.532
X98.561Y-123.912
X98.561Y-131.532
X102.661Y-123.912
X102.661Y-131.532
X105.201Y-123.912
X105.201Y-131.532
X114.361Y-131.166
X114.361Y-141.326
X118.52Y-131.166
X118.52Y-141.326
X122.679Y-131.166
X122.679Y-141.326
X123.901Y-23.88
X123.901Y-28.038
X123.901Y-32.197
X123.901Y-36.356
X123.901Y-40.515
X123.901Y-44.674
X123.901Y-48.8
X123.901Y-52.991
X123.901Y-57.15
X123.901Y-61.309
X123.901Y-65.468
X123.901Y-69.626
X123.901Y-73.785
X123.901Y-77.699
X123.911Y-82.091
X123.911Y-84.631
X123.911Y-88.731
X123.911Y-91.271
X126.838Y-131.166
X126.838Y-141.326
X130.996Y-131.166
X130.996Y-141.326
X131.531Y-82.091
X131.531Y-84.631
X131.531Y-88.731
X131.531Y-91.271
X134.061Y-23.88
X134.061Y-28.038
X134.061Y-32.197
X134.061Y-36.356
X134.061Y-40.515
X134.061Y-44.674
X134.061Y-48.8
X134.061Y-52.991
X134.061Y-57.15
X134.061Y-61.309
X134.061Y-65.468
X134.061Y-69.626
X134.061Y-73.785
X134.061Y-77.699
X135.155Y-131.166
X135.155Y-141.326
X139.314Y-131.166
X139.314Y-141.326
X143.473Y-131.166
X143.473Y-141.326
X147.632Y-131.166
X147.632Y-141.326
X151.79Y-131.166
X151.79Y-141.326
X155.949Y-131.166
X155.949Y-141.326
X160.108Y-131.166
X160.108Y-141.326
X164.267Y-131.166
X164.267Y-141.326
X168.426Y-131.166
X168.426Y-141.326
X172.572Y-133.696
X172.572Y-141.316
X175.112Y-133.696
X175.112Y-141.316
X179.212Y-133.696
X179.212Y-141.316
X181.752Y-133.696
X181.752Y-141.316
X190.293Y-131.468
X190.293Y-141.628
X191.721Y-60.729
X191.721Y-70.889
X194.452Y-131.468
X194.452Y-141.628
X195.88Y-60.729
X195.88Y-70.889
X198.61Y-131.468
X198.61Y-141.628
X200.038Y-60.729
X200.038Y-70.889
X202.769Y-131.468
X202.769Y-141.628
X204.197Y-60.729
X204.197Y-70.889
X206.928Y-131.468
X206.928Y-141.628
X208.356Y-60.729
X208.356Y-70.889
X211.087Y-131.468
X211.087Y-141.628
X212.515Y-60.729
X212.515Y-70.889
X215.246Y-131.468
X215.246Y-141.628
X216.674Y-60.729
X216.674Y-70.889
X219.404Y-131.468
X219.404Y-141.628
X220.832Y-60.729
X220.832Y-70.889
X223.563Y-131.468
X223.563Y-141.628
X224.991Y-60.729
X224.991Y-70.889
X227.722Y-131.468
X227.722Y-141.628
X229.15Y-60.729
X229.15Y-70.889
X231.881Y-131.468
X231.881Y-141.628
X233.309Y-60.729
X233.309Y-70.889
X236.04Y-131.468
X236.04Y-141.628
X237.468Y-60.729
X237.468Y-70.889
X240.198Y-131.468
X240.198Y-141.628
X241.626Y-60.729
X241.626Y-70.889
X244.357Y-131.468
X244.357Y-141.628
X245.785Y-60.729
X245.785Y-70.889
X248.504Y-133.998
X248.504Y-141.618
X249.932Y-63.259
X249.932Y-70.879
X251.044Y-133.998
X251.044Y-141.618
X252.472Y-63.259
X252.472Y-70.879
X255.144Y-133.998
X255.144Y-141.618
X256.572Y-63.259
X256.572Y-70.879
X257.684Y-133.998
X257.684Y-141.618
X259.112Y-63.259
X259.112Y-70.879
T6
X173.177Y-56.134
X173.177Y-58.674
X173.177Y-61.214
X173.177Y-63.754
X173.177Y-66.294
X173.177Y-68.834
X177.777Y-56.134
X177.777Y-58.674
X177.777Y-61.214
X177.777Y-63.754
X177.777Y-66.294
X177.777Y-68.834
T7
X45.421Y-108.851
X45.421Y-111.391
X45.421Y-113.931
X57.417Y-108.851
X57.417Y-111.391
X57.417Y-113.931
X69.412Y-108.851
X69.412Y-111.391
X69.412Y-113.931
X78.837Y-71.788
X78.837Y-76.038
X78.837Y-80.288
X78.837Y-84.538
X81.407Y-108.851
X81.407Y-111.391
X81.407Y-113.931
X82.839Y-31.349
X82.839Y-43.344
X82.839Y-55.339
X82.839Y-67.334
X85.379Y-31.349
X85.379Y-43.344
X85.379Y-55.339
X85.379Y-67.334
X85.861Y-107.772
X85.861Y-117.932
X87.919Y-31.349
X87.919Y-43.344
X87.919Y-55.339
X87.919Y-67.334
X88.997Y-71.788
X88.997Y-76.038
X88.997Y-80.288
X88.997Y-84.538
X90.111Y-107.772
X90.111Y-117.932
X94.361Y-107.772
X94.361Y-117.932
X98.611Y-107.772
X98.611Y-117.932
X121.973Y-118.634
X121.973Y-121.174
X121.973Y-123.714
X133.968Y-118.634
X133.968Y-121.174
X133.968Y-123.714
X137.511Y-71.931
X137.511Y-76.181
X137.511Y-80.431
X137.511Y-84.681
X141.513Y-31.491
X141.513Y-43.486
X141.513Y-55.481
X141.513Y-67.477
X144.053Y-31.491
X144.053Y-43.486
X144.053Y-55.481
X144.053Y-67.477
X145.963Y-118.634
X145.963Y-121.174
X145.963Y-123.714
X146.593Y-31.491
X146.593Y-43.486
X146.593Y-55.481
X146.593Y-67.477
X147.671Y-71.931
X147.671Y-76.181
X147.671Y-80.431
X147.671Y-84.681
X157.958Y-118.634
X157.958Y-121.174
X157.958Y-123.714
X162.412Y-117.556
X162.412Y-127.716
X166.662Y-117.556
X166.662Y-127.716
X170.912Y-117.556
X170.912Y-127.716
X175.162Y-117.556
X175.162Y-127.716
X197.904Y-118.937
X197.904Y-121.477
X197.904Y-124.017
X199.332Y-48.198
X199.332Y-50.738
X199.332Y-53.278
X209.899Y-118.937
X209.899Y-121.477
X209.899Y-124.017
X211.327Y-48.198
X211.327Y-50.738
X211.327Y-53.278
X221.895Y-118.937
X221.895Y-121.477
X221.895Y-124.017
X223.323Y-48.198
X223.323Y-50.738
X223.323Y-53.278
X233.89Y-118.937
X233.89Y-121.477
X233.89Y-124.017
X235.318Y-48.198
X235.318Y-50.738
X235.318Y-53.278
X238.344Y-117.858
X238.344Y-128.018
X239.772Y-47.119
X239.772Y-57.279
X242.594Y-117.858
X242.594Y-128.018
X244.022Y-47.119
X244.022Y-57.279
X246.844Y-117.858
X246.844Y-128.018
X248.272Y-47.119
X248.272Y-57.279
X251.094Y-117.858
X251.094Y-128.018
X252.522Y-47.119
X252.522Y-57.279
T8
X39.802Y-82.271
X39.802Y-87.351
X103.81Y-109.626
X108.89Y-109.626
X154.457Y-82.702
X159.537Y-82.702
X172.568Y-28.169
X177.648Y-28.169
X178.029Y-110.896
X183.109Y-110.896
X257.744Y-121.578
X257.744Y-126.658
X259.172Y-50.839
X259.172Y-55.919
T9
X38.365Y-155.042
X39.406Y-26.645
X95.533Y-97.333
X194.259Y-26.772
X196.346Y-100.482
X226.267Y-26.772
X226.267Y-100.152
X264.205Y-26.772
X264.205Y-100.152
X266.577Y-155.289
M30
